<?xml version="1.0" standalone="no"?>
<!DOCTYPE svg PUBLIC "-//W3C//DTD SVG 20010904//EN"
 "http://www.w3.org/TR/2001/REC-SVG-20010904/DTD/svg10.dtd">
<svg version="1.0" xmlns="http://www.w3.org/2000/svg"
 width="920.000000pt" height="856.000000pt" viewBox="0 0 920.000000 856.000000"
 preserveAspectRatio="xMidYMid meet">

<g transform="translate(0.000000,856.000000) scale(0.100000,-0.100000)"
fill="#000000" stroke="none">
<path d="M2465 8449 c-733 -74 -1427 -463 -1866 -1046 -248 -329 -403 -715
-476 -1183 -28 -179 -25 -654 5 -845 65 -409 207 -804 408 -1136 134 -222 249
-365 496 -615 l198 -200 -6 -85 c-16 -215 76 -443 241 -597 146 -135 326 -211
503 -212 l62 0 0 -42 c0 -115 48 -287 107 -387 46 -78 138 -179 211 -233 115
-85 294 -148 424 -148 l66 0 7 -87 c9 -110 45 -238 93 -327 41 -76 147 -196
221 -250 111 -82 257 -134 401 -144 86 -6 95 -9 93 -27 -1 -10 3 -60 8 -109
64 -569 721 -867 1199 -543 54 37 572 547 680 671 51 57 92 117 118 170 39 78
72 182 72 224 0 12 3 23 8 25 4 3 41 -2 82 -10 49 -9 103 -13 156 -9 399 28
693 322 730 730 l7 73 76 7 c107 9 190 30 279 72 245 113 411 345 441 617 6
53 10 101 9 107 -2 6 28 12 72 15 255 15 473 140 607 347 74 115 111 219 129
368 6 50 12 61 76 129 240 257 453 622 566 971 93 286 132 537 133 840 1 736
-271 1400 -785 1916 -219 219 -407 353 -681 485 -146 70 -312 131 -478 173
-435 113 -956 111 -1422 -3 -356 -87 -701 -240 -986 -436 l-76 -52 -54 51
c-407 388 -903 629 -1484 722 -119 19 -535 27 -670 13z m565 -393 c329 -40
648 -151 940 -329 83 -50 268 -190 343 -259 l58 -53 -911 -910 -911 -910 128
-125 c211 -206 385 -306 658 -376 101 -26 125 -28 300 -29 149 0 208 4 274 19
190 41 359 113 513 217 75 51 183 153 571 538 l477 476 1191 -1190 c654 -655
1203 -1211 1219 -1236 171 -264 -71 -625 -382 -569 -127 23 -100 -1 -1038 935
-818 815 -878 873 -922 885 -114 30 -227 -43 -244 -157 -15 -101 -61 -49 895
-1008 939 -941 909 -908 932 -1033 13 -69 -1 -156 -36 -229 -72 -147 -244
-234 -402 -204 -120 23 -92 -2 -1033 937 -971 968 -897 903 -1010 892 -120
-12 -194 -147 -145 -266 11 -26 278 -300 888 -912 654 -655 878 -886 894 -920
12 -25 27 -73 34 -108 49 -257 -205 -493 -460 -428 -70 18 -109 39 -180 97
-64 53 -70 59 -120 119 -126 150 -355 258 -555 261 l-63 1 -6 92 c-7 114 -26
189 -76 291 -120 244 -363 407 -628 422 l-103 6 0 66 c0 134 -58 305 -144 424
-134 189 -363 312 -592 320 l-71 2 -6 90 c-4 50 -14 117 -22 150 -40 147 -144
306 -263 401 -73 58 -217 128 -307 150 -93 22 -259 22 -348 1 -79 -20 -199
-73 -254 -113 -21 -15 -188 -176 -371 -358 l-333 -331 -153 155 c-301 305
-499 626 -630 1020 -157 473 -182 958 -75 1420 50 212 150 455 262 637 342
550 970 945 1637 1028 140 17 438 18 580 1z m3743 -226 c257 -33 473 -95 692
-199 620 -295 1071 -894 1209 -1606 41 -214 50 -508 22 -726 -51 -396 -203
-778 -436 -1093 l-63 -84 -47 57 c-27 31 -612 619 -1302 1308 -859 858 -1266
1258 -1295 1272 -50 25 -109 27 -161 6 -25 -11 -207 -185 -582 -559 -347 -346
-568 -559 -609 -586 -87 -58 -210 -114 -311 -142 -73 -20 -108 -23 -250 -23
-142 0 -177 4 -246 24 -85 23 -266 108 -271 126 -4 14 1553 1566 1655 1649
544 447 1301 665 1995 576z m-4079 -3639 c86 -40 149 -99 188 -179 30 -61 33
-74 33 -162 0 -159 1 -158 -383 -543 -384 -385 -380 -382 -537 -382 -87 0
-107 3 -157 27 -171 80 -260 261 -214 436 8 29 26 71 39 95 14 23 171 187 349
364 333 332 358 352 458 374 61 13 158 0 224 -30z m722 -782 c123 -22 230
-105 282 -217 24 -50 27 -69 26 -157 0 -159 4 -153 -392 -547 -315 -314 -341
-337 -397 -358 -86 -32 -217 -26 -294 14 -79 41 -146 109 -183 185 -29 59 -32
75 -32 156 1 155 2 157 377 533 177 178 342 335 367 350 39 23 124 49 171 51
8 1 42 -4 75 -10z m854 -819 c103 -29 210 -129 249 -234 38 -102 24 -233 -35
-327 -12 -20 -165 -178 -339 -352 -362 -362 -372 -370 -512 -376 -127 -5 -216
31 -300 122 -54 58 -79 108 -93 186 -13 71 -6 132 23 211 18 50 50 86 346 383
179 181 344 339 366 352 86 51 194 64 295 35z m779 -805 c126 -30 217 -102
269 -213 24 -50 27 -70 27 -157 0 -162 1 -161 -379 -542 -273 -274 -330 -326
-378 -348 -159 -73 -330 -38 -448 92 -111 122 -128 306 -40 443 37 58 655 672
697 694 34 17 134 44 168 45 11 0 49 -6 84 -14z"/>
</g>
</svg>
